<svg width="22" height="23" viewBox="0 0 22 23" fill="none" xmlns="http://www.w3.org/2000/svg">
<path d="M5.375 21C7.79125 21 9.75 19.0412 9.75 16.625C9.75 14.2088 7.79125 12.25 5.375 12.25C2.95875 12.25 1 14.2088 1 16.625C1 19.0412 2.95875 21 5.375 21Z" stroke="black" stroke-linecap="round" stroke-linejoin="round"/>
<path d="M17.25 22.25C19.3211 22.25 21 20.5711 21 18.5C21 16.4289 19.3211 14.75 17.25 14.75C15.1789 14.75 13.5 16.4289 13.5 18.5C13.5 20.5711 15.1789 22.25 17.25 22.25Z" stroke="black" stroke-linecap="round" stroke-linejoin="round"/>
<path d="M7.25 12.25C7.7075 9.7425 9.5825 7.40875 12.875 5.25" stroke="black" stroke-linecap="round" stroke-linejoin="round"/>
<path d="M17.25 14.75C15.5838 11.8338 14.3338 8.08375 16 3.5" stroke="black" stroke-linecap="round" stroke-linejoin="round"/>
<path d="M2.25 3.50001C6.83375 0.166257 11.4162 0.166257 16 3.50001C11.4162 6.83376 6.83375 6.83376 2.25 3.50001Z" stroke="black" stroke-linecap="round" stroke-linejoin="round"/>
</svg>
