<svg width="17" height="22" viewBox="0 0 17 22" fill="none" xmlns="http://www.w3.org/2000/svg">
<path d="M11.1693 21L10.6146 21.8321C10.9215 22.0366 11.316 22.0557 11.6412 21.8817C11.9663 21.7077 12.1693 21.3688 12.1693 21H11.1693ZM8.16933 19L8.72403 18.168C8.38813 17.944 7.95053 17.944 7.61463 18.168L8.16933 19ZM5.16933 21H4.16933C4.16933 21.3688 4.37231 21.7077 4.69747 21.8817C5.02263 22.0557 5.41717 22.0366 5.72403 21.8321L5.16933 21ZM4.92017 2.53713L4.83987 3.5339L4.92017 2.53713ZM6.60399 1.83967L5.84238 1.19163L5.84238 1.19163L6.60399 1.83967ZM2.70122 4.68606L1.70445 4.76636L2.70122 4.68606ZM4.85537 2.53191L4.93567 1.53514L4.85537 2.53191ZM2.00898 6.43468L2.65702 7.19628L2.65703 7.19628L2.00898 6.43468ZM2.70644 4.75086L3.70322 4.67055L2.70644 4.75086ZM1.95947 9.52323L1.31143 10.2848L1.31144 10.2848L1.95947 9.52323ZM1.95947 6.4768L1.31144 5.71519L1.31143 5.7152L1.95947 6.4768ZM2.70644 11.2492L1.70967 11.1689L1.70967 11.1689L2.70644 11.2492ZM2.00898 9.56535L2.65702 8.80375L2.65702 8.80374L2.00898 9.56535ZM4.85537 13.4681L4.93567 14.4649H4.93567L4.85537 13.4681ZM2.70122 11.314L3.69799 11.3943L3.69799 11.3943L2.70122 11.314ZM6.60399 14.1604L7.3656 13.5123L7.36559 13.5123L6.60399 14.1604ZM4.92017 13.4629L4.83986 12.4661H4.83986L4.92017 13.4629ZM9.69254 14.2099L10.4541 14.8579L10.4541 14.8579L9.69254 14.2099ZM6.64611 14.2099L5.8845 14.8579L5.88451 14.8579L6.64611 14.2099ZM11.4185 13.4629L11.4988 12.4661L11.4988 12.4661L11.4185 13.4629ZM9.73467 14.1604L8.97306 13.5123L8.97306 13.5123L9.73467 14.1604ZM13.6374 11.314L14.6342 11.2337L14.6342 11.2337L13.6374 11.314ZM11.4833 13.4681L11.403 14.4649L11.403 14.4649L11.4833 13.4681ZM14.3297 9.56536L14.9777 10.327L14.9777 10.327L14.3297 9.56536ZM13.6322 11.2492L12.6354 11.3295L12.6354 11.3295L13.6322 11.2492ZM14.3792 6.4768L15.0272 5.7152L15.0272 5.7152L14.3792 6.4768ZM14.3792 9.52323L13.7311 8.76162L13.7311 8.76162L14.3792 9.52323ZM13.6322 4.75086L12.6354 4.67055V4.67055L13.6322 4.75086ZM14.3297 6.43468L13.6816 7.19628L13.6816 7.19628L14.3297 6.43468ZM11.4833 2.53191L11.403 1.53514L11.403 1.53514L11.4833 2.53191ZM13.6374 4.68606L14.6342 4.76636V4.76636L13.6374 4.68606ZM9.73467 1.83967L10.4963 1.19163L10.4963 1.19163L9.73467 1.83967ZM11.4185 2.53713L11.4988 3.5339H11.4988L11.4185 2.53713ZM9.69254 1.79016L8.93093 2.4382L8.93094 2.43821L9.69254 1.79016ZM6.64612 1.79016L7.40772 2.4382L7.40772 2.4382L6.64612 1.79016ZM5.16933 13.4584L5.21352 12.4594L5.16933 13.4584ZM11.724 20.168L8.72403 18.168L7.61463 19.8321L10.6146 21.8321L11.724 20.168ZM7.61463 18.168L4.61463 20.168L5.72403 21.8321L8.72403 19.8321L7.61463 18.168ZM8.93094 2.43821L8.97307 2.48772L10.4963 1.19163L10.4541 1.14212L8.93094 2.43821ZM11.4988 3.5339L11.5636 3.52868L11.403 1.53514L11.3382 1.54036L11.4988 3.5339ZM12.6407 4.60576L12.6354 4.67055L14.629 4.83116L14.6342 4.76636L12.6407 4.60576ZM13.6816 7.19628L13.7311 7.23841L15.0272 5.7152L14.9777 5.67307L13.6816 7.19628ZM13.7311 8.76162L13.6816 8.80375L14.9777 10.327L15.0272 10.2848L13.7311 8.76162ZM12.6354 11.3295L12.6407 11.3943L14.6342 11.2337L14.629 11.1689L12.6354 11.3295ZM11.5636 12.4713L11.4988 12.4661L11.3382 14.4597L11.403 14.4649L11.5636 12.4713ZM8.97306 13.5123L8.93093 13.5618L10.4541 14.8579L10.4963 14.8084L8.97306 13.5123ZM7.40772 13.5618L7.3656 13.5123L5.84238 14.8084L5.8845 14.8579L7.40772 13.5618ZM4.83986 12.4661L4.77507 12.4713L4.93567 14.4649L5.00047 14.4597L4.83986 12.4661ZM3.69799 11.3943L3.70322 11.3295L1.70967 11.1689L1.70445 11.2337L3.69799 11.3943ZM2.65702 8.80374L2.60751 8.76162L1.31144 10.2848L1.36095 10.327L2.65702 8.80374ZM2.60751 7.23841L2.65702 7.19628L1.36095 5.67307L1.31144 5.71519L2.60751 7.23841ZM3.70322 4.67055L3.69799 4.60576L1.70445 4.76636L1.70967 4.83116L3.70322 4.67055ZM4.77507 3.52868L4.83987 3.5339L5.00047 1.54036L4.93567 1.53514L4.77507 3.52868ZM7.36559 2.48771L7.40772 2.4382L5.88451 1.14212L5.84238 1.19163L7.36559 2.48771ZM4.83987 3.5339C5.80098 3.61133 6.74073 3.22207 7.36559 2.48771L5.84238 1.19163C5.63409 1.43642 5.32084 1.56617 5.00047 1.54036L4.83987 3.5339ZM3.69799 4.60576C3.64851 3.99157 4.16089 3.4792 4.77507 3.52868L4.93567 1.53514C3.09313 1.3867 1.55601 2.92382 1.70445 4.76636L3.69799 4.60576ZM2.65703 7.19628C3.39139 6.57142 3.78065 5.63167 3.70322 4.67055L1.70967 4.83116C1.73548 5.15153 1.60573 5.46478 1.36094 5.67307L2.65703 7.19628ZM2.60751 8.76162C2.13823 8.36232 2.13823 7.63771 2.60751 7.23841L1.31143 5.7152C-0.0964046 6.91311 -0.0964067 9.08692 1.31143 10.2848L2.60751 8.76162ZM3.70322 11.3295C3.78065 10.3684 3.39139 9.42861 2.65702 8.80375L1.36094 10.327C1.60573 10.5352 1.73548 10.8485 1.70967 11.1689L3.70322 11.3295ZM4.77507 12.4713C4.16089 12.5208 3.64851 12.0085 3.69799 11.3943L1.70445 11.2337C1.55601 13.0762 3.09313 14.6133 4.93567 14.4649L4.77507 12.4713ZM8.93093 13.5618C8.53163 14.0311 7.80702 14.0311 7.40772 13.5618L5.88451 14.8579C7.08242 16.2657 9.25623 16.2657 10.4541 14.8579L8.93093 13.5618ZM12.6407 11.3943C12.6901 12.0085 12.1778 12.5208 11.5636 12.4713L11.403 14.4649C13.2455 14.6133 14.7826 13.0762 14.6342 11.2337L12.6407 11.3943ZM13.6816 8.80375C12.9473 9.42861 12.558 10.3684 12.6354 11.3295L14.629 11.1689C14.6032 10.8485 14.7329 10.5352 14.9777 10.327L13.6816 8.80375ZM13.7311 7.23841C14.2004 7.63771 14.2004 8.36232 13.7311 8.76162L15.0272 10.2848C16.4351 9.08692 16.4351 6.91311 15.0272 5.7152L13.7311 7.23841ZM12.6354 4.67055C12.558 5.63167 12.9473 6.57142 13.6816 7.19628L14.9777 5.67307C14.7329 5.46478 14.6032 5.15153 14.629 4.83116L12.6354 4.67055ZM11.5636 3.52868C12.1778 3.4792 12.6901 3.99158 12.6407 4.60576L14.6342 4.76636C14.7826 2.92382 13.2455 1.3867 11.403 1.53514L11.5636 3.52868ZM8.97306 2.48771C9.59792 3.22208 10.5377 3.61133 11.4988 3.5339L11.3382 1.54036C11.0178 1.56617 10.7046 1.43642 10.4963 1.19163L8.97306 2.48771ZM10.4541 1.14212C9.25623 -0.265716 7.08242 -0.265718 5.88451 1.14212L7.40772 2.4382C7.80702 1.96892 8.53163 1.96892 8.93093 2.4382L10.4541 1.14212ZM7.36559 13.5123C6.82205 12.8735 6.04036 12.4959 5.21352 12.4594L5.12513 14.4574C5.40068 14.4696 5.66127 14.5955 5.84238 14.8084L7.36559 13.5123ZM5.21352 12.4594C5.08969 12.4539 4.96491 12.4561 4.83986 12.4661L5.00047 14.4597C5.0423 14.4563 5.08392 14.4556 5.12513 14.4574L5.21352 12.4594ZM6.16933 21V13.4584H4.16933V21H6.16933ZM11.4988 12.4661C11.3737 12.4561 11.249 12.4539 11.1251 12.4594L11.2135 14.4574C11.2547 14.4556 11.2964 14.4563 11.3382 14.4597L11.4988 12.4661ZM11.1251 12.4594C10.2983 12.4959 9.5166 12.8735 8.97306 13.5123L10.4963 14.8084C10.6774 14.5955 10.938 14.4696 11.2135 14.4574L11.1251 12.4594ZM10.1693 13.4584V21H12.1693V13.4584H10.1693Z" fill="white"/>
<path d="M10.1693 7L7.16931 10L6.16931 9" stroke="white" stroke-width="2" stroke-linecap="round" stroke-linejoin="round"/>
</svg>
